<svg width="16" height="19" viewBox="0 0 16 19" fill="none" xmlns="http://www.w3.org/2000/svg">
<rect width="16" height="16" rx="8" fill="#AE6033"/>
<path d="M6.09082 4.30664C6.06478 4.69727 6.05176 5.73242 6.05176 7.41211C6.05176 7.62044 6.05176 7.89714 6.05176 8.24219C6.05827 8.58724 6.06152 8.83464 6.06152 8.98438C6.06152 9.58984 6.02897 10.0749 5.96387 10.4395C5.89876 10.8105 5.77181 11.1296 5.58301 11.3965C5.25098 11.8587 4.77246 12.0898 4.14746 12.0898C3.72428 12.0898 3.40853 12.0085 3.2002 11.8457C2.99186 11.6895 2.8877 11.5007 2.8877 11.2793C2.8877 11.1035 2.94954 10.9505 3.07324 10.8203C3.19043 10.6966 3.34017 10.6348 3.52246 10.6348C3.72428 10.6348 3.88379 10.6901 4.00098 10.8008C4.11816 10.918 4.17676 11.0612 4.17676 11.2305C4.17676 11.4909 4.04655 11.7025 3.78613 11.8652C3.87077 11.9108 3.98145 11.9336 4.11816 11.9336C4.26139 11.9401 4.39811 11.9173 4.52832 11.8652C4.65853 11.8197 4.74967 11.7578 4.80176 11.6797C4.91243 11.4974 4.9873 11.3216 5.02637 11.1523C5.06543 10.9831 5.09798 10.6868 5.12402 10.2637C5.15658 9.66471 5.17285 8.55794 5.17285 6.94336C5.17285 5.37435 5.15983 4.48893 5.13379 4.28711C5.12077 4.21549 4.99707 4.15365 4.7627 4.10156L4.41113 4.0332V3.88672C4.71712 3.91276 5.10775 3.92578 5.58301 3.92578C6.0778 3.92578 6.46842 3.91276 6.75488 3.88672V4.08203C6.68327 4.08203 6.6084 4.08854 6.53027 4.10156C6.45215 4.10807 6.38053 4.11784 6.31543 4.13086C6.25033 4.13737 6.19824 4.1569 6.15918 4.18945C6.12012 4.22201 6.09733 4.26107 6.09082 4.30664Z" fill="white"/>
<path d="M10.8906 8.76562H8.53516L7.42188 11.3789C7.39844 11.418 7.38672 11.457 7.38672 11.4961C7.38672 11.6055 7.47266 11.6953 7.64453 11.7656C7.81641 11.8281 7.98828 11.8594 8.16016 11.8594L8.17188 12.0469L5.86328 12.0586V11.8242C5.87109 11.8242 5.87891 11.8242 5.88672 11.8242C6.03516 11.8242 6.19531 11.793 6.36719 11.7305C6.53906 11.6602 6.67578 11.5664 6.77734 11.4492C6.91016 11.293 7.46094 10.1094 8.42969 7.89844L9.88281 4.59375H10.2695L12.8359 10.6758C13.0547 11.1992 13.293 11.5234 13.5508 11.6484C13.6211 11.6797 13.6953 11.7031 13.7734 11.7188C13.8516 11.7266 13.9258 11.7305 13.9961 11.7305C14.0664 11.7305 14.1172 11.7344 14.1484 11.7422L14.125 12.0352C13.6016 12.0117 13.0117 12 12.3555 12C11.7617 12 11.2812 12.0117 10.9141 12.0352L10.9258 11.8125C10.9258 11.8203 10.9961 11.8242 11.1367 11.8242C11.418 11.8242 11.6133 11.7578 11.7227 11.625C11.7773 11.5625 11.8047 11.4766 11.8047 11.3672C11.8047 11.2656 11.7812 11.1523 11.7344 11.0273L11.6758 10.8516L10.8906 8.76562ZM8.67578 8.48438H10.7969L9.75391 5.95312L8.67578 8.48438Z" fill="white"/>
</svg>
